<?xml version="1.0" encoding="UTF-8"?>
<svg id="Calque_2" xmlns="http://www.w3.org/2000/svg" version="1.1" viewBox="0 0 628.14 1004.8">
  <!-- Generator: Adobe Illustrator 30.1.0, SVG Export Plug-In . SVG Version: 2.1.1 Build 136)  -->
  <defs>
    <style>
      .coque { fill: var(--boat-hull, #006a99); }
    .mat { fill: var(--boat-mast, #191919); }
    .grande-voile { fill: var(--boat-mainsail, #00b1ff); }
    .petite-voile { fill: var(--boat-jib, #99e0ff); }
    .cabine { fill: var(--boat-cabin, #999); }
    .appendices { fill: var(--boat-foil, #ff0); }
    </style>
  </defs>
  <path id="coque" class="coque" d="M627.54,824.31c-34.32-.36-70.32-.34-106.91-.03-51.14.43-103.42,1.42-153.84,2.71-27.1.69-53.66,1.46-79.22,2.27,2.71,13.69,5.11,29.29,6.17,44.57h-14.66c.14-7.25-.47-24.51-1.18-41.87-.03-.79-.06-1.59-.1-2.38-1.23.04-2.46.08-3.68.12-6.93.23-13.77.46-20.52.7-70.92,2.44-131.7,5.08-171.11,6.91-30.23,1.41-47.88,2.33-47.88,2.33v3.9h-16.77v1.22H.28c-.35.25-.39,1.82,0,2.05h17.54v25.14c.74.03,1.49.05,2.23.07-.01-1.14-.01-2.29-.01-3.45h13.3c0,.47-.03,1.85-.1,3.9,77.58,2.53,144.84,3.72,202.98,3.86.53.01,1.07.01,1.6,0,7.89.03,15.62.03,23.18.01,1.54-.01,3.07-.02,4.6-.02,9.53-.04,18.79-.11,27.78-.2,216.55-2.3,281.77-21.17,281.77-35.94,0-6-5.17-9.76-7.89-12.23,0,0,59.78-.66,60.28-.83.5-.17,1.05-1.94,0-2.81Z"/>
  <path id="appendices" class="appendices" d="M287.57,829.26c-1.69-8.44-3.49-16.16-5.18-22.64-2.71-10.37-5.13-17.56-6.31-19.45.06,2.92.34,9.61.69,18.09.31,7.21.68,15.72,1.03,24.32.04.79.07,1.59.1,2.38.71,17.36,1.32,34.62,1.18,41.87h14.66c-1.06-15.28-3.46-30.88-6.17-44.57ZM250.56,995.38v.03h-11.58c-20.34.34-35.9,2.3-35.9,4.66,0,2.61,18.97,4.73,42.39,4.73s42.38-2.12,42.38-4.73c0-2.41-16.28-4.41-37.29-4.69ZM250.56,995.38l10.21-116.41c5.96-.29,9.97-.85,9.97-1.49,0-.44-1.94-.85-5.14-1.16-1.53,0-3.06.01-4.6.02-7.56.02-15.29.02-23.18-.01-.53.01-1.07.01-1.6,0-3.13.3-5.03.71-5.03,1.15,0,.51,2.57.97,6.66,1.29l1.13,116.63c2.12-.03,4.28-.05,6.49-.05,1.72,0,3.42.01,5.09.03ZM20.05,872.02c.17,34.74,2.88,55.96,4.73,55.96,5.81,0,7.98-42.07,8.46-55.51.07-2.05.1-3.43.1-3.9h-13.3c0,1.16,0,2.31.01,3.45Z"/>
  <path id="cabine" class="cabine" d="M258.96,824.19c-1.87-.53-3.92-1.08-6.16-1.63-1.1-.28-2.24-.55-3.44-.82-2.83-.67-5.92-1.33-9.31-1.99-16.93-3.32-41.06-6.64-75.24-8.94-8.91-.6-18.51-1.13-28.84-1.58-.57-.02-1.15-.05-1.73-.08l-74.27,1.08v4.46h22.52v22.62c39.41-1.83,100.19-4.47,171.11-6.91,6.75-.24,13.59-.47,20.52-.7-2.85-1.4-7.59-3.35-15.16-5.51ZM115.9,825.29l-16.67,4.66v-9.33h16.67v4.67ZM163.67,828.18h-25.21l-5.67-9.78h25.11l6.77,6.78-1,3ZM171.67,828.18l-8.44-9.78,8.67-3.56,4.44,10.44-4.67,2.9Z"/>
  <path id="mat" class="mat" d="M265.97,802.65l-11.62-2.8-4.04-.97c.24,2.28.46,4.44.68,6.48v.03c-.29-.02-.58-.04-.88-.06-.03-.01-.06-.01-.09-.01-7.07-.51-16.66-.99-27.92-1.43-27.3-16.45-64.06-36.9-64.06-36.9l-3.4,3.41s29.53,17.92,55.9,33.07c-8.65-.29-17.99-.56-27.74-.82h-.19c-71.61-1.87-165.01-2.77-165.01-2.77v10.96l42.37-.61,74.27-1.08,1.95-.02,31.46-.46,50.71-.73c8.3,4.69,15.91,8.87,21.69,11.81,3.39.66,6.48,1.32,9.31,1.99-3.3-2.87-11.1-7.97-20.83-13.95l22.68-.33c.66,6.3,1.2,11.38,1.59,15.1,2.24.55,4.29,1.1,6.16,1.63l8.12-8.68s-.39-4.51-1.11-12.86ZM195.82,272.5l31.05,279.74c2.31-47.82,3.01-94.26,2.53-138.03C208.44,208.21,183.94,0,170.6,0c-1.77,0,10,121.84,25.19,272.16.01.12.02.23.03.34Z"/>
  <path id="petite-voile" class="petite-voile" d="M213.06,175.47c8.28,56.72,15.26,141.08,16.34,238.74.48,43.77-.22,90.21-2.53,138.03-.24,5-.5,10.01-.77,15.04-3.96,71.95-11.59,146.69-24.3,219.89l48.51,11.71,4.04.97,11.62,2.8,10.8,2.61c-.35-8.48-.63-15.17-.69-18.09,1.18,1.89,3.6,9.08,6.31,19.45l84.4,20.37c50.42-1.29,102.7-2.28,153.84-2.71L213.06,175.47Z"/>
  <path id="grande-voile" class="grande-voile" d="M250.31,798.88l-48.51-11.71c12.71-73.2,20.34-147.94,24.3-219.89.27-5.03.53-10.04.77-15.04l-31.05-279.74c0-.11-.02-.22-.03-.34L165.95,3.33h-71.41c0,39.55-72.59,412.29-72.59,785.92l6.22,7.26,154.44,6.14h.19c9.75.26,19.09.53,27.74.82-26.37-15.15-55.9-33.07-55.9-33.07l3.4-3.41s36.76,20.45,64.06,36.9c11.26.44,20.85.92,27.92,1.43.03,0,.06,0,.09.01l.88.03c-.22-2.04-.44-4.2-.68-6.48Z"/>
</svg>