<?xml version="1.0" encoding="UTF-8"?>
<svg xmlns="http://www.w3.org/2000/svg" viewBox="0.0 0.0 611.0 188.0">
  <path id="imoca" fill="currentColor" d="M89.62 0.00 L84.78 0.93 L68.78 0.94 L32.11 3.00 L18.73 3.26 L0.00 80.71 L0.00 103.30 L2.80 111.69 L14.24 153.84 L17.40 166.90 L18.32 175.45 L25.85 176.86 L51.53 178.03 L60.95 178.02 L73.13 179.02 L97.07 179.19 L98.62 179.34 L99.65 180.00 L210.37 180.00 L215.52 179.04 L233.38 179.06 L243.05 178.12 L264.43 177.00 L271.73 177.04 L283.24 175.39 L299.16 174.28 L302.12 174.51 L336.55 171.65 L382.22 166.14 L417.19 160.27 L444.90 154.36 L472.32 147.28 L499.36 138.92 L525.97 129.17 L553.80 117.15 L588.07 99.45 L603.00 89.93 L603.00 92.93 L603.00 89.26 L600.20 87.99 L577.71 74.58 L549.21 60.42 L520.01 48.24 L494.37 39.23 L468.48 31.48 L442.36 24.91 L407.19 17.75 L371.69 12.20 L326.93 7.11 L272.77 3.02 L236.84 0.99 L223.36 0.89 L219.33 0.00 L89.62 0.00 Z"/>
</svg>
