<svg xmlns="http://www.w3.org/2000/svg" viewBox="0 0 64 64" width="64" height="64">
  <path d="M22,8 C24,6 26,10 26,22 C26,34 25,48 24,54 L22,58 L20,54 C19,48 18,34 18,22 C18,10 20,6 22,8Z" fill="#ffffff"/>
  <path d="M42,8 C44,6 46,10 46,22 C46,34 45,48 44,54 L42,58 L40,54 C39,48 38,34 38,22 C38,10 40,6 42,8Z" fill="#ffffff"/>
  <rect x="24" y="20" width="16" height="3" rx="1" fill="#ffffff" opacity="0.8"/>
  <rect x="24" y="34" width="16" height="3" rx="1" fill="#ffffff" opacity="0.8"/>
  <circle cx="32" cy="18" r="2" fill="#000000" opacity="0.4"/>
</svg>
